# xmcd CD database file
#
# Track frame offsets:
#	150
#	8091
#	84120
#	136511
#	183389
#	238668
#	276322
#
# Disc length: 4442 seconds
#
# Revision: 0
# Processed by: cddbd v1.5.1PL0 Copyright (c) Steve Scherf et al.
# Submitted via: CDex 1.51
#
DISCID=4c115807
DTITLE=Jim Pepper - Flying Eagle
DYEAR=1900
DGENRE=Jazz
TTITLE0=Flying at New Morning
TTITLE1=Three Quarter Gemini
TTITLE2=Somewhere Over the Rainbow
TTITLE3=Ski Jumping Blues
TTITLE4=Soul Mates
TTITLE5=Green Pepper
TTITLE6=Legacy of the Flying Eagle
EXTD=
EXTT0=
EXTT1=
EXTT2=
EXTT3=
EXTT4=
EXTT5=
EXTT6=
PLAYORDER=
